<mxfile host="app.diagrams.net" agent="Mozilla/5.0 (Windows NT 10.0; Win64; x64) AppleWebKit/537.36 (KHTML, like Gecko) Chrome/136.0.0.0 Safari/537.36 Edg/136.0.0.0" version="26.2.14">
  <diagram name="第 1 页" id="hgxA84uFAGLbT_i_ZHmX">
    <mxGraphModel dx="1493" dy="876" grid="1" gridSize="10" guides="1" tooltips="1" connect="1" arrows="1" fold="1" page="1" pageScale="1" pageWidth="3300" pageHeight="2339" math="0" shadow="0">
      <root>
        <mxCell id="0" />
        <mxCell id="1" parent="0" />
        <mxCell id="yj0dncIzRizpLJcmr-Et-2" value="用户" style="shape=umlActor;verticalLabelPosition=bottom;verticalAlign=top;html=1;outlineConnect=0;align=center;" parent="1" vertex="1">
          <mxGeometry x="1915" y="420" width="30" height="60" as="geometry" />
        </mxCell>
        <mxCell id="yj0dncIzRizpLJcmr-Et-60" style="edgeStyle=none;rounded=0;orthogonalLoop=1;jettySize=auto;html=1;entryX=0;entryY=0.5;entryDx=0;entryDy=0;" parent="1" source="yj0dncIzRizpLJcmr-Et-36" target="yj0dncIzRizpLJcmr-Et-54" edge="1">
          <mxGeometry relative="1" as="geometry" />
        </mxCell>
        <mxCell id="0nHK9SWeEJoY91TjhR7_-15" style="edgeStyle=orthogonalEdgeStyle;rounded=0;orthogonalLoop=1;jettySize=auto;html=1;exitX=0.5;exitY=0;exitDx=0;exitDy=0;" parent="1" source="yj0dncIzRizpLJcmr-Et-36" target="yj0dncIzRizpLJcmr-Et-2" edge="1">
          <mxGeometry relative="1" as="geometry" />
        </mxCell>
        <mxCell id="0nHK9SWeEJoY91TjhR7_-24" style="edgeStyle=orthogonalEdgeStyle;rounded=0;orthogonalLoop=1;jettySize=auto;html=1;exitX=0.5;exitY=0;exitDx=0;exitDy=0;" parent="1" source="yj0dncIzRizpLJcmr-Et-36" target="0nHK9SWeEJoY91TjhR7_-18" edge="1">
          <mxGeometry relative="1" as="geometry" />
        </mxCell>
        <mxCell id="QXPddEUmbmZqSIX-B10B-20" style="edgeStyle=none;rounded=0;orthogonalLoop=1;jettySize=auto;html=1;exitX=0.75;exitY=1;exitDx=0;exitDy=0;entryX=0.75;entryY=0;entryDx=0;entryDy=0;" edge="1" parent="1" source="yj0dncIzRizpLJcmr-Et-36" target="yj0dncIzRizpLJcmr-Et-39">
          <mxGeometry relative="1" as="geometry" />
        </mxCell>
        <mxCell id="yj0dncIzRizpLJcmr-Et-36" value="前端" style="swimlane;horizontal=0;whiteSpace=wrap;html=1;startSize=50;fillStyle=auto;glass=0;fillColor=#E1D5E7;strokeColor=#9673a6;swimlaneFillColor=default;" parent="1" vertex="1">
          <mxGeometry x="1030" y="580" width="1219" height="540" as="geometry">
            <mxRectangle x="110" y="150" width="40" height="140" as="alternateBounds" />
          </mxGeometry>
        </mxCell>
        <mxCell id="QXPddEUmbmZqSIX-B10B-18" style="edgeStyle=none;rounded=0;orthogonalLoop=1;jettySize=auto;html=1;exitX=0.5;exitY=0;exitDx=0;exitDy=0;entryX=0.5;entryY=1;entryDx=0;entryDy=0;" edge="1" parent="yj0dncIzRizpLJcmr-Et-36" source="QXPddEUmbmZqSIX-B10B-8" target="QXPddEUmbmZqSIX-B10B-9">
          <mxGeometry relative="1" as="geometry" />
        </mxCell>
        <mxCell id="QXPddEUmbmZqSIX-B10B-8" value="功能模块" style="swimlane;whiteSpace=wrap;html=1;" vertex="1" parent="yj0dncIzRizpLJcmr-Et-36">
          <mxGeometry x="79.5" y="280" width="1060" height="216" as="geometry" />
        </mxCell>
        <mxCell id="0nHK9SWeEJoY91TjhR7_-8" value="数据看板" style="swimlane;whiteSpace=wrap;html=1;" parent="QXPddEUmbmZqSIX-B10B-8" vertex="1">
          <mxGeometry x="825" y="50" width="170" height="140" as="geometry" />
        </mxCell>
        <mxCell id="0nHK9SWeEJoY91TjhR7_-26" value="日程管理" style="swimlane;whiteSpace=wrap;html=1;" parent="QXPddEUmbmZqSIX-B10B-8" vertex="1">
          <mxGeometry x="575" y="50" width="170" height="140" as="geometry" />
        </mxCell>
        <mxCell id="0nHK9SWeEJoY91TjhR7_-10" value="博客展示" style="swimlane;whiteSpace=wrap;html=1;" parent="QXPddEUmbmZqSIX-B10B-8" vertex="1">
          <mxGeometry x="305" y="50" width="170" height="140" as="geometry" />
        </mxCell>
        <mxCell id="0nHK9SWeEJoY91TjhR7_-27" value="笔记界面" style="swimlane;whiteSpace=wrap;html=1;" parent="QXPddEUmbmZqSIX-B10B-8" vertex="1">
          <mxGeometry x="65" y="50" width="170" height="140" as="geometry" />
        </mxCell>
        <mxCell id="QXPddEUmbmZqSIX-B10B-17" style="edgeStyle=none;rounded=0;orthogonalLoop=1;jettySize=auto;html=1;entryX=0.5;entryY=0;entryDx=0;entryDy=0;" edge="1" parent="yj0dncIzRizpLJcmr-Et-36" source="QXPddEUmbmZqSIX-B10B-9" target="yj0dncIzRizpLJcmr-Et-36">
          <mxGeometry relative="1" as="geometry">
            <mxPoint x="630" y="4" as="targetPoint" />
          </mxGeometry>
        </mxCell>
        <mxCell id="QXPddEUmbmZqSIX-B10B-9" value="展示模块" style="swimlane;whiteSpace=wrap;html=1;" vertex="1" parent="yj0dncIzRizpLJcmr-Et-36">
          <mxGeometry x="79.5" y="60" width="1060" height="176" as="geometry" />
        </mxCell>
        <mxCell id="0nHK9SWeEJoY91TjhR7_-39" value="Web端" style="swimlane;whiteSpace=wrap;html=1;" parent="QXPddEUmbmZqSIX-B10B-9" vertex="1">
          <mxGeometry x="682.75" y="40" width="170" height="116" as="geometry" />
        </mxCell>
        <mxCell id="0nHK9SWeEJoY91TjhR7_-40" value="Vue3" style="rounded=1;whiteSpace=wrap;html=1;fillColor=#d5e8d4;strokeColor=#82b366;" parent="0nHK9SWeEJoY91TjhR7_-39" vertex="1">
          <mxGeometry x="25" y="40" width="120" height="60" as="geometry" />
        </mxCell>
        <mxCell id="0nHK9SWeEJoY91TjhR7_-38" value="本地应用端" style="swimlane;whiteSpace=wrap;html=1;" parent="QXPddEUmbmZqSIX-B10B-9" vertex="1">
          <mxGeometry x="207.25" y="40" width="170" height="116" as="geometry" />
        </mxCell>
        <mxCell id="0nHK9SWeEJoY91TjhR7_-36" value="Flutter" style="rounded=1;whiteSpace=wrap;html=1;fillColor=#dae8fc;strokeColor=#6c8ebf;" parent="0nHK9SWeEJoY91TjhR7_-38" vertex="1">
          <mxGeometry x="25" y="40" width="120" height="60" as="geometry" />
        </mxCell>
        <mxCell id="0nHK9SWeEJoY91TjhR7_-23" style="edgeStyle=orthogonalEdgeStyle;rounded=0;orthogonalLoop=1;jettySize=auto;html=1;exitX=1;exitY=0.75;exitDx=0;exitDy=0;entryX=0;entryY=0.75;entryDx=0;entryDy=0;" parent="1" source="yj0dncIzRizpLJcmr-Et-39" target="yj0dncIzRizpLJcmr-Et-55" edge="1">
          <mxGeometry relative="1" as="geometry" />
        </mxCell>
        <mxCell id="0nHK9SWeEJoY91TjhR7_-56" style="edgeStyle=orthogonalEdgeStyle;rounded=0;orthogonalLoop=1;jettySize=auto;html=1;exitX=0;exitY=0.25;exitDx=0;exitDy=0;entryX=1;entryY=0.25;entryDx=0;entryDy=0;" parent="1" source="yj0dncIzRizpLJcmr-Et-39" target="0nHK9SWeEJoY91TjhR7_-46" edge="1">
          <mxGeometry relative="1" as="geometry" />
        </mxCell>
        <mxCell id="QXPddEUmbmZqSIX-B10B-19" style="edgeStyle=none;rounded=0;orthogonalLoop=1;jettySize=auto;html=1;exitX=0.25;exitY=0;exitDx=0;exitDy=0;entryX=0.25;entryY=1;entryDx=0;entryDy=0;" edge="1" parent="1" source="yj0dncIzRizpLJcmr-Et-39" target="yj0dncIzRizpLJcmr-Et-36">
          <mxGeometry relative="1" as="geometry" />
        </mxCell>
        <mxCell id="yj0dncIzRizpLJcmr-Et-39" value="Spring Cloud" style="swimlane;horizontal=0;whiteSpace=wrap;html=1;startSize=48;" parent="1" vertex="1">
          <mxGeometry x="1030" y="1200" width="1220" height="330" as="geometry">
            <mxRectangle x="110" y="390" width="40" height="140" as="alternateBounds" />
          </mxGeometry>
        </mxCell>
        <mxCell id="0nHK9SWeEJoY91TjhR7_-3" value="笔记模块" style="swimlane;whiteSpace=wrap;html=1;" parent="yj0dncIzRizpLJcmr-Et-39" vertex="1">
          <mxGeometry x="400" y="20" width="170" height="140" as="geometry" />
        </mxCell>
        <mxCell id="0nHK9SWeEJoY91TjhR7_-5" value="鉴权模块" style="swimlane;whiteSpace=wrap;html=1;" parent="yj0dncIzRizpLJcmr-Et-39" vertex="1">
          <mxGeometry x="130" y="20" width="170" height="140" as="geometry" />
        </mxCell>
        <mxCell id="0nHK9SWeEJoY91TjhR7_-45" value="数据统计模块" style="swimlane;whiteSpace=wrap;html=1;" parent="yj0dncIzRizpLJcmr-Et-39" vertex="1">
          <mxGeometry x="680" y="20" width="170" height="140" as="geometry" />
        </mxCell>
        <mxCell id="QXPddEUmbmZqSIX-B10B-21" value="任务管理模块" style="swimlane;whiteSpace=wrap;html=1;" vertex="1" parent="yj0dncIzRizpLJcmr-Et-39">
          <mxGeometry x="940" y="20" width="170" height="140" as="geometry" />
        </mxCell>
        <mxCell id="yj0dncIzRizpLJcmr-Et-48" style="edgeStyle=none;rounded=0;orthogonalLoop=1;jettySize=auto;html=1;exitX=0.5;exitY=0;exitDx=0;exitDy=0;exitPerimeter=0;" parent="1" source="yj0dncIzRizpLJcmr-Et-2" target="yj0dncIzRizpLJcmr-Et-2" edge="1">
          <mxGeometry relative="1" as="geometry" />
        </mxCell>
        <mxCell id="yj0dncIzRizpLJcmr-Et-59" style="edgeStyle=none;rounded=0;orthogonalLoop=1;jettySize=auto;html=1;entryX=0.5;entryY=0;entryDx=0;entryDy=0;" parent="1" source="yj0dncIzRizpLJcmr-Et-54" target="yj0dncIzRizpLJcmr-Et-55" edge="1">
          <mxGeometry relative="1" as="geometry" />
        </mxCell>
        <mxCell id="yj0dncIzRizpLJcmr-Et-54" value="PouchDB数据库" style="rounded=1;whiteSpace=wrap;html=1;" parent="1" vertex="1">
          <mxGeometry x="2660" y="820" width="120" height="60" as="geometry" />
        </mxCell>
        <mxCell id="0nHK9SWeEJoY91TjhR7_-22" style="edgeStyle=orthogonalEdgeStyle;rounded=0;orthogonalLoop=1;jettySize=auto;html=1;exitX=0;exitY=0.25;exitDx=0;exitDy=0;entryX=1;entryY=0.25;entryDx=0;entryDy=0;" parent="1" source="yj0dncIzRizpLJcmr-Et-55" target="yj0dncIzRizpLJcmr-Et-39" edge="1">
          <mxGeometry relative="1" as="geometry" />
        </mxCell>
        <mxCell id="yj0dncIzRizpLJcmr-Et-55" value="CouchDB数据库" style="rounded=1;whiteSpace=wrap;html=1;" parent="1" vertex="1">
          <mxGeometry x="2660" y="1335" width="120" height="60" as="geometry" />
        </mxCell>
        <mxCell id="0nHK9SWeEJoY91TjhR7_-18" value="用户" style="shape=umlActor;verticalLabelPosition=bottom;verticalAlign=top;html=1;outlineConnect=0;" parent="1" vertex="1">
          <mxGeometry x="1320" y="420" width="30" height="60" as="geometry" />
        </mxCell>
        <mxCell id="0nHK9SWeEJoY91TjhR7_-57" style="edgeStyle=orthogonalEdgeStyle;rounded=0;orthogonalLoop=1;jettySize=auto;html=1;exitX=1;exitY=0.75;exitDx=0;exitDy=0;entryX=0;entryY=0.75;entryDx=0;entryDy=0;" parent="1" source="0nHK9SWeEJoY91TjhR7_-46" target="yj0dncIzRizpLJcmr-Et-39" edge="1">
          <mxGeometry relative="1" as="geometry" />
        </mxCell>
        <mxCell id="0nHK9SWeEJoY91TjhR7_-46" value="AI" style="swimlane;horizontal=0;whiteSpace=wrap;html=1;" parent="1" vertex="1">
          <mxGeometry x="110" y="1200" width="520" height="330" as="geometry" />
        </mxCell>
        <mxCell id="0nHK9SWeEJoY91TjhR7_-49" value="RAG" style="swimlane;whiteSpace=wrap;html=1;" parent="0nHK9SWeEJoY91TjhR7_-46" vertex="1">
          <mxGeometry x="40" y="30" width="170" height="140" as="geometry" />
        </mxCell>
        <mxCell id="0nHK9SWeEJoY91TjhR7_-53" value="MCP" style="swimlane;whiteSpace=wrap;html=1;" parent="0nHK9SWeEJoY91TjhR7_-46" vertex="1">
          <mxGeometry x="240" y="30" width="170" height="140" as="geometry" />
        </mxCell>
      </root>
    </mxGraphModel>
  </diagram>
</mxfile>
